<svg xmlns="http://www.w3.org/2000/svg" xmlns:xlink="http://www.w3.org/1999/xlink" id="Layer_1" width="2320" height="2320" x="0" y="0" enable-background="new 0 0 2320 2320" version="1.1" viewBox="0 0 2320 2320" xml:space="preserve"><rect width="2320" height="2320" x="0" y="0" fill="#FFF"/><g><g><g style="fill:#000" transform="translate(160,160) translate(640,0) scale(0.8,0.8)"><rect width="100" height="100"/></g></g><g><g style="fill:#000" transform="translate(160,160) translate(800,0) scale(0.8,0.8)"><rect width="100" height="100"/></g></g><g><g style="fill:#000" transform="translate(160,160) translate(880,0) scale(0.8,0.8)"><rect width="100" height="100"/></g></g><g><g style="fill:#000" transform="translate(160,160) translate(1120,0) scale(0.8,0.8)"><rect width="100" height="100"/></g></g><g><g style="fill:#000" transform="translate(160,160) translate(640,80) scale(0.8,0.8)"><rect width="100" height="100"/></g></g><g><g style="fill:#000" transform="translate(160,160) translate(960,80) scale(0.8,0.8)"><rect width="100" height="100"/></g></g><g><g style="fill:#000" transform="translate(160,160) translate(1280,80) scale(0.8,0.8)"><rect width="100" height="100"/></g></g><g><g style="fill:#000" transform="translate(160,160) translate(640,160) scale(0.8,0.8)"><rect width="100" height="100"/></g></g><g><g style="fill:#000" transform="translate(160,160) translate(720,160) scale(0.8,0.8)"><rect width="100" height="100"/></g></g><g><g style="fill:#000" transform="translate(160,160) translate(880,160) scale(0.8,0.8)"><rect width="100" height="100"/></g></g><g><g style="fill:#000" transform="translate(160,160) translate(1040,160) scale(0.8,0.8)"><rect width="100" height="100"/></g></g><g><g style="fill:#000" transform="translate(160,160) translate(1120,160) scale(0.8,0.8)"><rect width="100" height="100"/></g></g><g><g style="fill:#000" transform="translate(160,160) translate(1280,160) scale(0.8,0.8)"><rect width="100" height="100"/></g></g><g><g style="fill:#000" transform="translate(160,160) translate(800,240) scale(0.8,0.8)"><rect width="100" height="100"/></g></g><g><g style="fill:#000" transform="translate(160,160) translate(1040,240) scale(0.8,0.8)"><rect width="100" height="100"/></g></g><g><g style="fill:#000" transform="translate(160,160) translate(1280,240) scale(0.8,0.8)"><rect width="100" height="100"/></g></g><g><g style="fill:#000" transform="translate(160,160) translate(640,320) scale(0.8,0.8)"><rect width="100" height="100"/></g></g><g><g style="fill:#000" transform="translate(160,160) translate(880,320) scale(0.8,0.8)"><rect width="100" height="100"/></g></g><g><g style="fill:#000" transform="translate(160,160) translate(1040,320) scale(0.8,0.8)"><rect width="100" height="100"/></g></g><g><g style="fill:#000" transform="translate(160,160) translate(1120,320) scale(0.8,0.8)"><rect width="100" height="100"/></g></g><g><g style="fill:#000" transform="translate(160,160) translate(1280,320) scale(0.8,0.8)"><rect width="100" height="100"/></g></g><g><g style="fill:#000" transform="translate(160,160) translate(720,400) scale(0.8,0.8)"><rect width="100" height="100"/></g></g><g><g style="fill:#000" transform="translate(160,160) translate(880,400) scale(0.8,0.8)"><rect width="100" height="100"/></g></g><g><g style="fill:#000" transform="translate(160,160) translate(1120,400) scale(0.8,0.8)"><rect width="100" height="100"/></g></g><g><g style="fill:#000" transform="translate(160,160) translate(1280,400) scale(0.8,0.8)"><rect width="100" height="100"/></g></g><g><g style="fill:#000" transform="translate(160,160) translate(640,480) scale(0.8,0.8)"><rect width="100" height="100"/></g></g><g><g style="fill:#000" transform="translate(160,160) translate(800,480) scale(0.8,0.8)"><rect width="100" height="100"/></g></g><g><g style="fill:#000" transform="translate(160,160) translate(960,480) scale(0.8,0.8)"><rect width="100" height="100"/></g></g><g><g style="fill:#000" transform="translate(160,160) translate(1120,480) scale(0.8,0.8)"><rect width="100" height="100"/></g></g><g><g style="fill:#000" transform="translate(160,160) translate(1280,480) scale(0.8,0.8)"><rect width="100" height="100"/></g></g><g><g style="fill:#000" transform="translate(160,160) translate(720,560) scale(0.8,0.8)"><rect width="100" height="100"/></g></g><g><g style="fill:#000" transform="translate(160,160) translate(1040,560) scale(0.8,0.8)"><rect width="100" height="100"/></g></g><g><g style="fill:#000" transform="translate(160,160) translate(1200,560) scale(0.8,0.8)"><rect width="100" height="100"/></g></g><g><g style="fill:#000" transform="translate(160,160) translate(1280,560) scale(0.8,0.8)"><rect width="100" height="100"/></g></g><g><g style="fill:#000" transform="translate(160,160) translate(0,640) scale(0.8,0.8)"><rect width="100" height="100"/></g></g><g><g style="fill:#000" transform="translate(160,160) translate(240,640) scale(0.8,0.8)"><rect width="100" height="100"/></g></g><g><g style="fill:#000" transform="translate(160,160) translate(320,640) scale(0.8,0.8)"><rect width="100" height="100"/></g></g><g><g style="fill:#000" transform="translate(160,160) translate(400,640) scale(0.8,0.8)"><rect width="100" height="100"/></g></g><g><g style="fill:#000" transform="translate(160,160) translate(480,640) scale(0.8,0.8)"><rect width="100" height="100"/></g></g><g><g style="fill:#000" transform="translate(160,160) translate(560,640) scale(0.8,0.8)"><rect width="100" height="100"/></g></g><g><g style="fill:#000" transform="translate(160,160) translate(640,640) scale(0.8,0.8)"><rect width="100" height="100"/></g></g><g><g style="fill:#000" transform="translate(160,160) translate(800,640) scale(0.8,0.8)"><rect width="100" height="100"/></g></g><g><g style="fill:#000" transform="translate(160,160) translate(1280,640) scale(0.8,0.8)"><rect width="100" height="100"/></g></g><g><g style="fill:#000" transform="translate(160,160) translate(1360,640) scale(0.8,0.8)"><rect width="100" height="100"/></g></g><g><g style="fill:#000" transform="translate(160,160) translate(1600,640) scale(0.8,0.8)"><rect width="100" height="100"/></g></g><g><g style="fill:#000" transform="translate(160,160) translate(1760,640) scale(0.8,0.8)"><rect width="100" height="100"/></g></g><g><g style="fill:#000" transform="translate(160,160) translate(1840,640) scale(0.8,0.8)"><rect width="100" height="100"/></g></g><g><g style="fill:#000" transform="translate(160,160) translate(1920,640) scale(0.8,0.8)"><rect width="100" height="100"/></g></g><g><g style="fill:#000" transform="translate(160,160) translate(240,720) scale(0.8,0.8)"><rect width="100" height="100"/></g></g><g><g style="fill:#000" transform="translate(160,160) translate(320,720) scale(0.8,0.8)"><rect width="100" height="100"/></g></g><g><g style="fill:#000" transform="translate(160,160) translate(400,720) scale(0.8,0.8)"><rect width="100" height="100"/></g></g><g><g style="fill:#000" transform="translate(160,160) translate(560,720) scale(0.8,0.8)"><rect width="100" height="100"/></g></g><g><g style="fill:#000" transform="translate(160,160) translate(640,720) scale(0.8,0.8)"><rect width="100" height="100"/></g></g><g><g style="fill:#000" transform="translate(160,160) translate(720,720) scale(0.8,0.8)"><rect width="100" height="100"/></g></g><g><g style="fill:#000" transform="translate(160,160) translate(880,720) scale(0.8,0.8)"><rect width="100" height="100"/></g></g><g><g style="fill:#000" transform="translate(160,160) translate(960,720) scale(0.8,0.8)"><rect width="100" height="100"/></g></g><g><g style="fill:#000" transform="translate(160,160) translate(1040,720) scale(0.8,0.8)"><rect width="100" height="100"/></g></g><g><g style="fill:#000" transform="translate(160,160) translate(1120,720) scale(0.8,0.8)"><rect width="100" height="100"/></g></g><g><g style="fill:#000" transform="translate(160,160) translate(1200,720) scale(0.8,0.8)"><rect width="100" height="100"/></g></g><g><g style="fill:#000" transform="translate(160,160) translate(1280,720) scale(0.8,0.8)"><rect width="100" height="100"/></g></g><g><g style="fill:#000" transform="translate(160,160) translate(1360,720) scale(0.8,0.8)"><rect width="100" height="100"/></g></g><g><g style="fill:#000" transform="translate(160,160) translate(1520,720) scale(0.8,0.8)"><rect width="100" height="100"/></g></g><g><g style="fill:#000" transform="translate(160,160) translate(1600,720) scale(0.8,0.8)"><rect width="100" height="100"/></g></g><g><g style="fill:#000" transform="translate(160,160) translate(1680,720) scale(0.8,0.8)"><rect width="100" height="100"/></g></g><g><g style="fill:#000" transform="translate(160,160) translate(1760,720) scale(0.8,0.8)"><rect width="100" height="100"/></g></g><g><g style="fill:#000" transform="translate(160,160) translate(1840,720) scale(0.8,0.8)"><rect width="100" height="100"/></g></g><g><g style="fill:#000" transform="translate(160,160) translate(0,800) scale(0.8,0.8)"><rect width="100" height="100"/></g></g><g><g style="fill:#000" transform="translate(160,160) translate(80,800) scale(0.8,0.8)"><rect width="100" height="100"/></g></g><g><g style="fill:#000" transform="translate(160,160) translate(400,800) scale(0.8,0.8)"><rect width="100" height="100"/></g></g><g><g style="fill:#000" transform="translate(160,160) translate(480,800) scale(0.8,0.8)"><rect width="100" height="100"/></g></g><g><g style="fill:#000" transform="translate(160,160) translate(560,800) scale(0.8,0.8)"><rect width="100" height="100"/></g></g><g><g style="fill:#000" transform="translate(160,160) translate(640,800) scale(0.8,0.8)"><rect width="100" height="100"/></g></g><g><g style="fill:#000" transform="translate(160,160) translate(960,800) scale(0.8,0.8)"><rect width="100" height="100"/></g></g><g><g style="fill:#000" transform="translate(160,160) translate(1040,800) scale(0.8,0.8)"><rect width="100" height="100"/></g></g><g><g style="fill:#000" transform="translate(160,160) translate(1200,800) scale(0.8,0.8)"><rect width="100" height="100"/></g></g><g><g style="fill:#000" transform="translate(160,160) translate(1280,800) scale(0.8,0.8)"><rect width="100" height="100"/></g></g><g><g style="fill:#000" transform="translate(160,160) translate(1440,800) scale(0.8,0.8)"><rect width="100" height="100"/></g></g><g><g style="fill:#000" transform="translate(160,160) translate(1520,800) scale(0.8,0.8)"><rect width="100" height="100"/></g></g><g><g style="fill:#000" transform="translate(160,160) translate(1680,800) scale(0.8,0.8)"><rect width="100" height="100"/></g></g><g><g style="fill:#000" transform="translate(160,160) translate(1920,800) scale(0.8,0.8)"><rect width="100" height="100"/></g></g><g><g style="fill:#000" transform="translate(160,160) translate(0,880) scale(0.8,0.8)"><rect width="100" height="100"/></g></g><g><g style="fill:#000" transform="translate(160,160) translate(80,880) scale(0.8,0.8)"><rect width="100" height="100"/></g></g><g><g style="fill:#000" transform="translate(160,160) translate(160,880) scale(0.8,0.8)"><rect width="100" height="100"/></g></g><g><g style="fill:#000" transform="translate(160,160) translate(400,880) scale(0.8,0.8)"><rect width="100" height="100"/></g></g><g><g style="fill:#000" transform="translate(160,160) translate(560,880) scale(0.8,0.8)"><rect width="100" height="100"/></g></g><g><g style="fill:#000" transform="translate(160,160) translate(640,880) scale(0.8,0.8)"><rect width="100" height="100"/></g></g><g><g style="fill:#000" transform="translate(160,160) translate(800,880) scale(0.8,0.8)"><rect width="100" height="100"/></g></g><g><g style="fill:#000" transform="translate(160,160) translate(1120,880) scale(0.8,0.8)"><rect width="100" height="100"/></g></g><g><g style="fill:#000" transform="translate(160,160) translate(1280,880) scale(0.8,0.8)"><rect width="100" height="100"/></g></g><g><g style="fill:#000" transform="translate(160,160) translate(1440,880) scale(0.8,0.8)"><rect width="100" height="100"/></g></g><g><g style="fill:#000" transform="translate(160,160) translate(1600,880) scale(0.8,0.8)"><rect width="100" height="100"/></g></g><g><g style="fill:#000" transform="translate(160,160) translate(1680,880) scale(0.8,0.8)"><rect width="100" height="100"/></g></g><g><g style="fill:#000" transform="translate(160,160) translate(1760,880) scale(0.8,0.8)"><rect width="100" height="100"/></g></g><g><g style="fill:#000" transform="translate(160,160) translate(1840,880) scale(0.8,0.8)"><rect width="100" height="100"/></g></g><g><g style="fill:#000" transform="translate(160,160) translate(1920,880) scale(0.8,0.8)"><rect width="100" height="100"/></g></g><g><g style="fill:#000" transform="translate(160,160) translate(80,960) scale(0.8,0.8)"><rect width="100" height="100"/></g></g><g><g style="fill:#000" transform="translate(160,160) translate(160,960) scale(0.8,0.8)"><rect width="100" height="100"/></g></g><g><g style="fill:#000" transform="translate(160,160) translate(480,960) scale(0.8,0.8)"><rect width="100" height="100"/></g></g><g><g style="fill:#000" transform="translate(160,160) translate(880,960) scale(0.8,0.8)"><rect width="100" height="100"/></g></g><g><g style="fill:#000" transform="translate(160,160) translate(1120,960) scale(0.8,0.8)"><rect width="100" height="100"/></g></g><g><g style="fill:#000" transform="translate(160,160) translate(1200,960) scale(0.8,0.8)"><rect width="100" height="100"/></g></g><g><g style="fill:#000" transform="translate(160,160) translate(1280,960) scale(0.8,0.8)"><rect width="100" height="100"/></g></g><g><g style="fill:#000" transform="translate(160,160) translate(1440,960) scale(0.8,0.8)"><rect width="100" height="100"/></g></g><g><g style="fill:#000" transform="translate(160,160) translate(1520,960) scale(0.8,0.8)"><rect width="100" height="100"/></g></g><g><g style="fill:#000" transform="translate(160,160) translate(1920,960) scale(0.8,0.8)"><rect width="100" height="100"/></g></g><g><g style="fill:#000" transform="translate(160,160) translate(0,1040) scale(0.8,0.8)"><rect width="100" height="100"/></g></g><g><g style="fill:#000" transform="translate(160,160) translate(240,1040) scale(0.8,0.8)"><rect width="100" height="100"/></g></g><g><g style="fill:#000" transform="translate(160,160) translate(400,1040) scale(0.8,0.8)"><rect width="100" height="100"/></g></g><g><g style="fill:#000" transform="translate(160,160) translate(560,1040) scale(0.8,0.8)"><rect width="100" height="100"/></g></g><g><g style="fill:#000" transform="translate(160,160) translate(800,1040) scale(0.8,0.8)"><rect width="100" height="100"/></g></g><g><g style="fill:#000" transform="translate(160,160) translate(960,1040) scale(0.8,0.8)"><rect width="100" height="100"/></g></g><g><g style="fill:#000" transform="translate(160,160) translate(1040,1040) scale(0.8,0.8)"><rect width="100" height="100"/></g></g><g><g style="fill:#000" transform="translate(160,160) translate(1200,1040) scale(0.8,0.8)"><rect width="100" height="100"/></g></g><g><g style="fill:#000" transform="translate(160,160) translate(1280,1040) scale(0.8,0.8)"><rect width="100" height="100"/></g></g><g><g style="fill:#000" transform="translate(160,160) translate(1600,1040) scale(0.8,0.8)"><rect width="100" height="100"/></g></g><g><g style="fill:#000" transform="translate(160,160) translate(1840,1040) scale(0.8,0.8)"><rect width="100" height="100"/></g></g><g><g style="fill:#000" transform="translate(160,160) translate(0,1120) scale(0.8,0.8)"><rect width="100" height="100"/></g></g><g><g style="fill:#000" transform="translate(160,160) translate(80,1120) scale(0.8,0.8)"><rect width="100" height="100"/></g></g><g><g style="fill:#000" transform="translate(160,160) translate(160,1120) scale(0.8,0.8)"><rect width="100" height="100"/></g></g><g><g style="fill:#000" transform="translate(160,160) translate(320,1120) scale(0.8,0.8)"><rect width="100" height="100"/></g></g><g><g style="fill:#000" transform="translate(160,160) translate(400,1120) scale(0.8,0.8)"><rect width="100" height="100"/></g></g><g><g style="fill:#000" transform="translate(160,160) translate(480,1120) scale(0.8,0.8)"><rect width="100" height="100"/></g></g><g><g style="fill:#000" transform="translate(160,160) translate(560,1120) scale(0.8,0.8)"><rect width="100" height="100"/></g></g><g><g style="fill:#000" transform="translate(160,160) translate(640,1120) scale(0.8,0.8)"><rect width="100" height="100"/></g></g><g><g style="fill:#000" transform="translate(160,160) translate(720,1120) scale(0.8,0.8)"><rect width="100" height="100"/></g></g><g><g style="fill:#000" transform="translate(160,160) translate(1040,1120) scale(0.8,0.8)"><rect width="100" height="100"/></g></g><g><g style="fill:#000" transform="translate(160,160) translate(1200,1120) scale(0.8,0.8)"><rect width="100" height="100"/></g></g><g><g style="fill:#000" transform="translate(160,160) translate(1360,1120) scale(0.8,0.8)"><rect width="100" height="100"/></g></g><g><g style="fill:#000" transform="translate(160,160) translate(1440,1120) scale(0.8,0.8)"><rect width="100" height="100"/></g></g><g><g style="fill:#000" transform="translate(160,160) translate(1600,1120) scale(0.8,0.8)"><rect width="100" height="100"/></g></g><g><g style="fill:#000" transform="translate(160,160) translate(1680,1120) scale(0.8,0.8)"><rect width="100" height="100"/></g></g><g><g style="fill:#000" transform="translate(160,160) translate(1760,1120) scale(0.8,0.8)"><rect width="100" height="100"/></g></g><g><g style="fill:#000" transform="translate(160,160) translate(1840,1120) scale(0.8,0.8)"><rect width="100" height="100"/></g></g><g><g style="fill:#000" transform="translate(160,160) translate(1920,1120) scale(0.8,0.8)"><rect width="100" height="100"/></g></g><g><g style="fill:#000" transform="translate(160,160) translate(0,1200) scale(0.8,0.8)"><rect width="100" height="100"/></g></g><g><g style="fill:#000" transform="translate(160,160) translate(240,1200) scale(0.8,0.8)"><rect width="100" height="100"/></g></g><g><g style="fill:#000" transform="translate(160,160) translate(320,1200) scale(0.8,0.8)"><rect width="100" height="100"/></g></g><g><g style="fill:#000" transform="translate(160,160) translate(720,1200) scale(0.8,0.8)"><rect width="100" height="100"/></g></g><g><g style="fill:#000" transform="translate(160,160) translate(800,1200) scale(0.8,0.8)"><rect width="100" height="100"/></g></g><g><g style="fill:#000" transform="translate(160,160) translate(960,1200) scale(0.8,0.8)"><rect width="100" height="100"/></g></g><g><g style="fill:#000" transform="translate(160,160) translate(1200,1200) scale(0.8,0.8)"><rect width="100" height="100"/></g></g><g><g style="fill:#000" transform="translate(160,160) translate(1440,1200) scale(0.8,0.8)"><rect width="100" height="100"/></g></g><g><g style="fill:#000" transform="translate(160,160) translate(1520,1200) scale(0.8,0.8)"><rect width="100" height="100"/></g></g><g><g style="fill:#000" transform="translate(160,160) translate(1680,1200) scale(0.8,0.8)"><rect width="100" height="100"/></g></g><g><g style="fill:#000" transform="translate(160,160) translate(1760,1200) scale(0.8,0.8)"><rect width="100" height="100"/></g></g><g><g style="fill:#000" transform="translate(160,160) translate(1920,1200) scale(0.8,0.8)"><rect width="100" height="100"/></g></g><g><g style="fill:#000" transform="translate(160,160) translate(0,1280) scale(0.8,0.8)"><rect width="100" height="100"/></g></g><g><g style="fill:#000" transform="translate(160,160) translate(240,1280) scale(0.8,0.8)"><rect width="100" height="100"/></g></g><g><g style="fill:#000" transform="translate(160,160) translate(320,1280) scale(0.8,0.8)"><rect width="100" height="100"/></g></g><g><g style="fill:#000" transform="translate(160,160) translate(480,1280) scale(0.8,0.8)"><rect width="100" height="100"/></g></g><g><g style="fill:#000" transform="translate(160,160) translate(640,1280) scale(0.8,0.8)"><rect width="100" height="100"/></g></g><g><g style="fill:#000" transform="translate(160,160) translate(720,1280) scale(0.8,0.8)"><rect width="100" height="100"/></g></g><g><g style="fill:#000" transform="translate(160,160) translate(800,1280) scale(0.8,0.8)"><rect width="100" height="100"/></g></g><g><g style="fill:#000" transform="translate(160,160) translate(880,1280) scale(0.8,0.8)"><rect width="100" height="100"/></g></g><g><g style="fill:#000" transform="translate(160,160) translate(960,1280) scale(0.8,0.8)"><rect width="100" height="100"/></g></g><g><g style="fill:#000" transform="translate(160,160) translate(1040,1280) scale(0.8,0.8)"><rect width="100" height="100"/></g></g><g><g style="fill:#000" transform="translate(160,160) translate(1120,1280) scale(0.8,0.8)"><rect width="100" height="100"/></g></g><g><g style="fill:#000" transform="translate(160,160) translate(1280,1280) scale(0.8,0.8)"><rect width="100" height="100"/></g></g><g><g style="fill:#000" transform="translate(160,160) translate(1360,1280) scale(0.8,0.8)"><rect width="100" height="100"/></g></g><g><g style="fill:#000" transform="translate(160,160) translate(1440,1280) scale(0.8,0.8)"><rect width="100" height="100"/></g></g><g><g style="fill:#000" transform="translate(160,160) translate(1520,1280) scale(0.8,0.8)"><rect width="100" height="100"/></g></g><g><g style="fill:#000" transform="translate(160,160) translate(1600,1280) scale(0.8,0.8)"><rect width="100" height="100"/></g></g><g><g style="fill:#000" transform="translate(160,160) translate(1760,1280) scale(0.8,0.8)"><rect width="100" height="100"/></g></g><g><g style="fill:#000" transform="translate(160,160) translate(1840,1280) scale(0.8,0.8)"><rect width="100" height="100"/></g></g><g><g style="fill:#000" transform="translate(160,160) translate(640,1360) scale(0.8,0.8)"><rect width="100" height="100"/></g></g><g><g style="fill:#000" transform="translate(160,160) translate(800,1360) scale(0.8,0.8)"><rect width="100" height="100"/></g></g><g><g style="fill:#000" transform="translate(160,160) translate(880,1360) scale(0.8,0.8)"><rect width="100" height="100"/></g></g><g><g style="fill:#000" transform="translate(160,160) translate(1120,1360) scale(0.8,0.8)"><rect width="100" height="100"/></g></g><g><g style="fill:#000" transform="translate(160,160) translate(1280,1360) scale(0.8,0.8)"><rect width="100" height="100"/></g></g><g><g style="fill:#000" transform="translate(160,160) translate(1600,1360) scale(0.8,0.8)"><rect width="100" height="100"/></g></g><g><g style="fill:#000" transform="translate(160,160) translate(1760,1360) scale(0.8,0.8)"><rect width="100" height="100"/></g></g><g><g style="fill:#000" transform="translate(160,160) translate(1840,1360) scale(0.8,0.8)"><rect width="100" height="100"/></g></g><g><g style="fill:#000" transform="translate(160,160) translate(640,1440) scale(0.8,0.8)"><rect width="100" height="100"/></g></g><g><g style="fill:#000" transform="translate(160,160) translate(720,1440) scale(0.8,0.8)"><rect width="100" height="100"/></g></g><g><g style="fill:#000" transform="translate(160,160) translate(800,1440) scale(0.8,0.8)"><rect width="100" height="100"/></g></g><g><g style="fill:#000" transform="translate(160,160) translate(960,1440) scale(0.8,0.8)"><rect width="100" height="100"/></g></g><g><g style="fill:#000" transform="translate(160,160) translate(1120,1440) scale(0.8,0.8)"><rect width="100" height="100"/></g></g><g><g style="fill:#000" transform="translate(160,160) translate(1280,1440) scale(0.8,0.8)"><rect width="100" height="100"/></g></g><g><g style="fill:#000" transform="translate(160,160) translate(1440,1440) scale(0.8,0.8)"><rect width="100" height="100"/></g></g><g><g style="fill:#000" transform="translate(160,160) translate(1600,1440) scale(0.8,0.8)"><rect width="100" height="100"/></g></g><g><g style="fill:#000" transform="translate(160,160) translate(1920,1440) scale(0.8,0.8)"><rect width="100" height="100"/></g></g><g><g style="fill:#000" transform="translate(160,160) translate(640,1520) scale(0.8,0.8)"><rect width="100" height="100"/></g></g><g><g style="fill:#000" transform="translate(160,160) translate(880,1520) scale(0.8,0.8)"><rect width="100" height="100"/></g></g><g><g style="fill:#000" transform="translate(160,160) translate(1040,1520) scale(0.8,0.8)"><rect width="100" height="100"/></g></g><g><g style="fill:#000" transform="translate(160,160) translate(1200,1520) scale(0.8,0.8)"><rect width="100" height="100"/></g></g><g><g style="fill:#000" transform="translate(160,160) translate(1280,1520) scale(0.8,0.8)"><rect width="100" height="100"/></g></g><g><g style="fill:#000" transform="translate(160,160) translate(1600,1520) scale(0.8,0.8)"><rect width="100" height="100"/></g></g><g><g style="fill:#000" transform="translate(160,160) translate(640,1600) scale(0.8,0.8)"><rect width="100" height="100"/></g></g><g><g style="fill:#000" transform="translate(160,160) translate(800,1600) scale(0.8,0.8)"><rect width="100" height="100"/></g></g><g><g style="fill:#000" transform="translate(160,160) translate(880,1600) scale(0.8,0.8)"><rect width="100" height="100"/></g></g><g><g style="fill:#000" transform="translate(160,160) translate(1040,1600) scale(0.8,0.8)"><rect width="100" height="100"/></g></g><g><g style="fill:#000" transform="translate(160,160) translate(1200,1600) scale(0.8,0.8)"><rect width="100" height="100"/></g></g><g><g style="fill:#000" transform="translate(160,160) translate(1280,1600) scale(0.8,0.8)"><rect width="100" height="100"/></g></g><g><g style="fill:#000" transform="translate(160,160) translate(1360,1600) scale(0.8,0.8)"><rect width="100" height="100"/></g></g><g><g style="fill:#000" transform="translate(160,160) translate(1440,1600) scale(0.8,0.8)"><rect width="100" height="100"/></g></g><g><g style="fill:#000" transform="translate(160,160) translate(1520,1600) scale(0.8,0.8)"><rect width="100" height="100"/></g></g><g><g style="fill:#000" transform="translate(160,160) translate(1600,1600) scale(0.8,0.8)"><rect width="100" height="100"/></g></g><g><g style="fill:#000" transform="translate(160,160) translate(1840,1600) scale(0.8,0.8)"><rect width="100" height="100"/></g></g><g><g style="fill:#000" transform="translate(160,160) translate(1920,1600) scale(0.8,0.8)"><rect width="100" height="100"/></g></g><g><g style="fill:#000" transform="translate(160,160) translate(640,1680) scale(0.8,0.8)"><rect width="100" height="100"/></g></g><g><g style="fill:#000" transform="translate(160,160) translate(720,1680) scale(0.8,0.8)"><rect width="100" height="100"/></g></g><g><g style="fill:#000" transform="translate(160,160) translate(800,1680) scale(0.8,0.8)"><rect width="100" height="100"/></g></g><g><g style="fill:#000" transform="translate(160,160) translate(960,1680) scale(0.8,0.8)"><rect width="100" height="100"/></g></g><g><g style="fill:#000" transform="translate(160,160) translate(1040,1680) scale(0.8,0.8)"><rect width="100" height="100"/></g></g><g><g style="fill:#000" transform="translate(160,160) translate(1120,1680) scale(0.8,0.8)"><rect width="100" height="100"/></g></g><g><g style="fill:#000" transform="translate(160,160) translate(1200,1680) scale(0.8,0.8)"><rect width="100" height="100"/></g></g><g><g style="fill:#000" transform="translate(160,160) translate(1360,1680) scale(0.8,0.8)"><rect width="100" height="100"/></g></g><g><g style="fill:#000" transform="translate(160,160) translate(1440,1680) scale(0.8,0.8)"><rect width="100" height="100"/></g></g><g><g style="fill:#000" transform="translate(160,160) translate(1840,1680) scale(0.8,0.8)"><rect width="100" height="100"/></g></g><g><g style="fill:#000" transform="translate(160,160) translate(1920,1680) scale(0.8,0.8)"><rect width="100" height="100"/></g></g><g><g style="fill:#000" transform="translate(160,160) translate(880,1760) scale(0.8,0.8)"><rect width="100" height="100"/></g></g><g><g style="fill:#000" transform="translate(160,160) translate(1040,1760) scale(0.8,0.8)"><rect width="100" height="100"/></g></g><g><g style="fill:#000" transform="translate(160,160) translate(1200,1760) scale(0.8,0.8)"><rect width="100" height="100"/></g></g><g><g style="fill:#000" transform="translate(160,160) translate(1360,1760) scale(0.8,0.8)"><rect width="100" height="100"/></g></g><g><g style="fill:#000" transform="translate(160,160) translate(1600,1760) scale(0.8,0.8)"><rect width="100" height="100"/></g></g><g><g style="fill:#000" transform="translate(160,160) translate(1680,1760) scale(0.8,0.8)"><rect width="100" height="100"/></g></g><g><g style="fill:#000" transform="translate(160,160) translate(1760,1760) scale(0.8,0.8)"><rect width="100" height="100"/></g></g><g><g style="fill:#000" transform="translate(160,160) translate(1840,1760) scale(0.8,0.8)"><rect width="100" height="100"/></g></g><g><g style="fill:#000" transform="translate(160,160) translate(1920,1760) scale(0.8,0.8)"><rect width="100" height="100"/></g></g><g><g style="fill:#000" transform="translate(160,160) translate(720,1840) scale(0.8,0.8)"><rect width="100" height="100"/></g></g><g><g style="fill:#000" transform="translate(160,160) translate(880,1840) scale(0.8,0.8)"><rect width="100" height="100"/></g></g><g><g style="fill:#000" transform="translate(160,160) translate(960,1840) scale(0.8,0.8)"><rect width="100" height="100"/></g></g><g><g style="fill:#000" transform="translate(160,160) translate(1040,1840) scale(0.8,0.8)"><rect width="100" height="100"/></g></g><g><g style="fill:#000" transform="translate(160,160) translate(1520,1840) scale(0.8,0.8)"><rect width="100" height="100"/></g></g><g><g style="fill:#000" transform="translate(160,160) translate(1600,1840) scale(0.8,0.8)"><rect width="100" height="100"/></g></g><g><g style="fill:#000" transform="translate(160,160) translate(1760,1840) scale(0.8,0.8)"><rect width="100" height="100"/></g></g><g><g style="fill:#000" transform="translate(160,160) translate(1840,1840) scale(0.8,0.8)"><rect width="100" height="100"/></g></g><g><g style="fill:#000" transform="translate(160,160) translate(1920,1840) scale(0.8,0.8)"><rect width="100" height="100"/></g></g><g><g style="fill:#000" transform="translate(160,160) translate(640,1920) scale(0.8,0.8)"><rect width="100" height="100"/></g></g><g><g style="fill:#000" transform="translate(160,160) translate(720,1920) scale(0.8,0.8)"><rect width="100" height="100"/></g></g><g><g style="fill:#000" transform="translate(160,160) translate(800,1920) scale(0.8,0.8)"><rect width="100" height="100"/></g></g><g><g style="fill:#000" transform="translate(160,160) translate(880,1920) scale(0.8,0.8)"><rect width="100" height="100"/></g></g><g><g style="fill:#000" transform="translate(160,160) translate(960,1920) scale(0.8,0.8)"><rect width="100" height="100"/></g></g><g><g style="fill:#000" transform="translate(160,160) translate(1040,1920) scale(0.8,0.8)"><rect width="100" height="100"/></g></g><g><g style="fill:#000" transform="translate(160,160) translate(1280,1920) scale(0.8,0.8)"><rect width="100" height="100"/></g></g><g><g style="fill:#000" transform="translate(160,160) translate(1680,1920) scale(0.8,0.8)"><rect width="100" height="100"/></g></g><g><g style="fill:#000" transform="translate(160,160) translate(1920,1920) scale(0.8,0.8)"><rect width="100" height="100"/></g></g><g><g style="fill:#000"><g transform="translate(160,160) translate(0,0) scale(5.6, 5.6)"><rect width="70" height="70" x="15" y="15" style="fill:none"/><path d="M85,0H15H0v15v70v15h15h70h15V85V15V0H85z M85,85H15V15h70V85z"/></g></g></g><g><g style="fill:#000"><g transform="translate(160,160) translate(1440,0) scale(5.6, 5.6)"><rect width="70" height="70" x="15" y="15" style="fill:none"/><path d="M85,0H15H0v15v70v15h15h70h15V85V15V0H85z M85,85H15V15h70V85z"/></g></g></g><g><g style="fill:#000"><g transform="translate(160,160) translate(0,1440) scale(5.6, 5.6)"><rect width="70" height="70" x="15" y="15" style="fill:none"/><path d="M85,0H15H0v15v70v15h15h70h15V85V15V0H85z M85,85H15V15h70V85z"/></g></g></g><g><g style="fill:#000" transform="translate(160,160) translate(160,160) scale(2.4, 2.4)"><rect width="100" height="100"/></g></g><g><g style="fill:#000" transform="translate(160,160) translate(1600,160) scale(2.4, 2.4)"><rect width="100" height="100"/></g></g><g><g style="fill:#000" transform="translate(160,160) translate(160,1600) scale(2.4, 2.4)"><rect width="100" height="100"/></g></g></g></svg>